<svg width="24" height="24" viewBox="0 0 24 24" fill="none" xmlns="http://www.w3.org/2000/svg">
<g clip-path="url(#clip0_45261_51756)">
<path fill-rule="evenodd" clip-rule="evenodd" d="M16.7609 6.38194C16.5148 3.91977 14.513 2.00004 12.0799 2.00004C10.8312 1.99458 9.62897 2.50773 8.74205 3.42606C7.97216 4.22321 7.49489 5.26865 7.38232 6.38194H7.38148C5.67679 6.38194 4.24458 7.6831 3.84221 9.94234L3.11409 15.8124C2.49431 20.1106 4.42857 22 8.21412 22H15.9627C19.4635 22 21.5559 19.8703 21.1262 16.0483L20.3746 9.98169C19.8927 7.69434 18.4973 6.38194 16.8293 6.38194H16.7609ZM15.3577 6.38194C15.1199 4.72151 13.7427 3.44777 12.077 3.44777C11.1956 3.44392 10.349 3.80527 9.72449 4.45193C9.21741 4.97696 8.8906 5.65495 8.7856 6.38194H15.3577ZM7.38149 7.82968H16.8294C17.8076 7.82968 18.6669 8.63795 19.0043 10.2299L19.7158 15.9973C20.1393 19.0658 18.7297 20.5523 15.9627 20.5523H8.21413C5.21795 20.5523 4.00879 19.3712 4.49303 16.0122L5.2172 10.1666C5.49392 8.61889 6.36262 7.82968 7.38149 7.82968ZM14.8327 10.5164C15.2172 10.5164 15.5289 10.8405 15.5289 11.2403C15.5289 11.6067 15.267 11.9096 14.9272 11.9575L14.8327 11.9641H14.7902C14.4058 11.9641 14.0941 11.64 14.0941 11.2403C14.0941 10.8738 14.356 10.5709 14.6958 10.523L14.7902 10.5164H14.8327ZM10.1168 11.2403C10.1168 10.8405 9.80508 10.5164 9.4206 10.5164H9.37811L9.28365 10.523C8.94385 10.5709 8.68195 10.8738 8.68195 11.2403C8.68195 11.64 8.99363 11.9641 9.37811 11.9641H9.4206L9.51506 11.9575C9.85486 11.9096 10.1168 11.6067 10.1168 11.2403Z" fill="#0D0D0E"/>
<circle cx="21" cy="4" r="3" fill="#FF0000"/>
</g>
<defs>
<clipPath id="clip0_45261_51756">
<rect width="24" height="24" fill="white"/>
</clipPath>
</defs>
</svg>
